<?xml version="1.0" encoding="UTF-8"?><svg id="uuid-d8204fd0-debe-4e92-9748-8ba42d4c6848" xmlns="http://www.w3.org/2000/svg" width="725" height="234" xmlns:xlink="http://www.w3.org/1999/xlink" viewBox="0 0 725 234"><defs><style>.uuid-ace58e54-460c-423f-b0b8-8f1b856750d0,.uuid-4149b18d-1351-4778-b82e-d80826f3b0a5,.uuid-0e014fc9-db1f-4821-b0d1-b76a0c9c253e,.uuid-faec83bb-6cbd-45bf-b438-31b0254f8e5a{font-size:16px;}.uuid-9a98c1eb-417e-482c-ad49-d6c5ecf0fcad,.uuid-4149b18d-1351-4778-b82e-d80826f3b0a5{font-family:TimesNewRomanPSMT, 'Times New Roman';}.uuid-9a98c1eb-417e-482c-ad49-d6c5ecf0fcad,.uuid-490c9a51-c083-425c-aa6a-9f20abaf1426{font-size:9.6px;}.uuid-ee617940-9421-4c53-8249-4490ef909603,.uuid-cdd49de9-02a7-4a22-8578-d513ed768517,.uuid-4e50fffa-593f-482c-a5cf-ba41d8739e01,.uuid-2f907e0f-e2ea-4f6a-990d-6c89ade17954,.uuid-de56cee4-f29e-460c-95df-c2353565315f,.uuid-8af4bb94-9440-448f-818f-6080430eb5c7{fill:none;}.uuid-ee617940-9421-4c53-8249-4490ef909603,.uuid-3e66e308-e6ad-44c0-a04e-0eb3ed5c1ae7,.uuid-f6b89f9b-fdb7-407e-8881-7d942f04ca9e{stroke-width:0px;}.uuid-c89a7c15-e1a0-49c0-a244-6391f4b1aac7{font-family:TimesNewRomanPS-BoldMT, 'Times New Roman';font-weight:700;}.uuid-c89a7c15-e1a0-49c0-a244-6391f4b1aac7,.uuid-12d4de5e-9fb1-472f-9383-9f28f9e40537,.uuid-4149b18d-1351-4778-b82e-d80826f3b0a5,.uuid-6461d282-acc0-49f2-b93d-66df436b1cc6,.uuid-faec83bb-6cbd-45bf-b438-31b0254f8e5a,.uuid-3e66e308-e6ad-44c0-a04e-0eb3ed5c1ae7{fill:#1f1e21;}.uuid-12d4de5e-9fb1-472f-9383-9f28f9e40537{stroke-width:.8px;}.uuid-12d4de5e-9fb1-472f-9383-9f28f9e40537,.uuid-acd060da-6e88-478f-bb56-c13a51a0c41d,.uuid-4e50fffa-593f-482c-a5cf-ba41d8739e01,.uuid-2f907e0f-e2ea-4f6a-990d-6c89ade17954,.uuid-de56cee4-f29e-460c-95df-c2353565315f{stroke:#1f1e21;}.uuid-0e014fc9-db1f-4821-b0d1-b76a0c9c253e,.uuid-faec83bb-6cbd-45bf-b438-31b0254f8e5a{font-family:TimesNewRomanPS-ItalicMT, 'Times New Roman';font-style:italic;}.uuid-acd060da-6e88-478f-bb56-c13a51a0c41d{fill:#fff;}.uuid-acd060da-6e88-478f-bb56-c13a51a0c41d,.uuid-4e50fffa-593f-482c-a5cf-ba41d8739e01{stroke-width:.68032px;}.uuid-cdd49de9-02a7-4a22-8578-d513ed768517{stroke:#0089c6;stroke-width:1.81417px;}.uuid-2f907e0f-e2ea-4f6a-990d-6c89ade17954{stroke-width:1.36063px;}.uuid-de56cee4-f29e-460c-95df-c2353565315f{stroke-width:1.36063px;}.uuid-bbccc3b2-e97a-44d2-a57a-410c506fbda8{clip-path:url(#uuid-c2ec8f30-ba38-4ab9-9853-1475c222e414);}.uuid-8af4bb94-9440-448f-818f-6080430eb5c7{stroke:#6f7072;stroke-width:.45354px;}.uuid-f6b89f9b-fdb7-407e-8881-7d942f04ca9e{fill:#0089c6;}.uuid-6df567a5-4168-4e25-b969-7c751659f37e{clip-path:url(#uuid-0c24db3c-66b8-45af-8d45-53495aa705ca);}</style><clipPath id="uuid-c2ec8f30-ba38-4ab9-9853-1475c222e414"><rect class="uuid-ee617940-9421-4c53-8249-4490ef909603" x="-71.32826" y="89.70241" width="161.74796" height="18.82709" transform="translate(-89.57023 108.66167) rotate(-90)"/></clipPath><clipPath id="uuid-0c24db3c-66b8-45af-8d45-53495aa705ca"><rect class="uuid-ee617940-9421-4c53-8249-4490ef909603" x="563.95814" y="143.44104" width="161.74796" height="18.82709" transform="translate(797.6867 -491.97753) rotate(90)"/></clipPath></defs><text class="uuid-6461d282-acc0-49f2-b93d-66df436b1cc6" transform="translate(73.86343 71.92915)"><tspan class="uuid-0e014fc9-db1f-4821-b0d1-b76a0c9c253e" x="0" y="0">k</tspan><tspan class="uuid-9a98c1eb-417e-482c-ad49-d6c5ecf0fcad" x="7.10156" y="3.2002">1</tspan></text><line class="uuid-cdd49de9-02a7-4a22-8578-d513ed768517" x1="147.6215" y1="98.44802" x2="197.05625" y2="98.44802"/><polygon class="uuid-f6b89f9b-fdb7-407e-8881-7d942f04ca9e" points="206.66304 98.44802 193.12584 103.97956 196.33806 98.44802 193.12584 92.91781 206.66304 98.44802"/><line class="uuid-cdd49de9-02a7-4a22-8578-d513ed768517" x1="396.3622" y1="156.70921" x2="445.79695" y2="156.70921"/><polygon class="uuid-f6b89f9b-fdb7-407e-8881-7d942f04ca9e" points="455.40374 156.70921 441.86653 162.24075 445.07875 156.70921 441.86653 151.179 455.40374 156.70921"/><g class="uuid-bbccc3b2-e97a-44d2-a57a-410c506fbda8"><line class="uuid-8af4bb94-9440-448f-818f-6080430eb5c7" x1="19.54865" y1="238.1026" x2="-16.80788" y2="201.74608"/><line class="uuid-8af4bb94-9440-448f-818f-6080430eb5c7" x1="19.54865" y1="229.2526" x2="-16.80788" y2="192.89608"/><line class="uuid-8af4bb94-9440-448f-818f-6080430eb5c7" x1="19.54865" y1="220.4026" x2="-16.80788" y2="184.04608"/><line class="uuid-8af4bb94-9440-448f-818f-6080430eb5c7" x1="19.54865" y1="211.5526" x2="-16.80788" y2="175.19608"/><line class="uuid-8af4bb94-9440-448f-818f-6080430eb5c7" x1="19.54865" y1="202.7026" x2="-16.80788" y2="166.34608"/><line class="uuid-8af4bb94-9440-448f-818f-6080430eb5c7" x1="19.54865" y1="193.8526" x2="-16.80788" y2="157.49608"/><line class="uuid-8af4bb94-9440-448f-818f-6080430eb5c7" x1="19.54865" y1="185.0026" x2="-16.80788" y2="148.64608"/><line class="uuid-8af4bb94-9440-448f-818f-6080430eb5c7" x1="19.54865" y1="176.1526" x2="-16.80788" y2="139.79608"/><line class="uuid-8af4bb94-9440-448f-818f-6080430eb5c7" x1="19.54865" y1="167.3026" x2="-16.80788" y2="130.94608"/><line class="uuid-8af4bb94-9440-448f-818f-6080430eb5c7" x1="19.54865" y1="158.4526" x2="-16.80788" y2="122.09608"/><line class="uuid-8af4bb94-9440-448f-818f-6080430eb5c7" x1="19.54865" y1="149.6026" x2="-16.80788" y2="113.24607"/><line class="uuid-8af4bb94-9440-448f-818f-6080430eb5c7" x1="19.54865" y1="140.7526" x2="-16.80788" y2="104.39607"/><line class="uuid-8af4bb94-9440-448f-818f-6080430eb5c7" x1="19.54865" y1="131.9026" x2="-16.80788" y2="95.54607"/><line class="uuid-8af4bb94-9440-448f-818f-6080430eb5c7" x1="19.54865" y1="123.0526" x2="-16.80788" y2="86.69607"/><line class="uuid-8af4bb94-9440-448f-818f-6080430eb5c7" x1="19.54865" y1="114.2026" x2="-16.80788" y2="77.84607"/><line class="uuid-8af4bb94-9440-448f-818f-6080430eb5c7" x1="19.54865" y1="105.3526" x2="-16.80788" y2="68.99607"/><line class="uuid-8af4bb94-9440-448f-818f-6080430eb5c7" x1="19.54865" y1="96.5026" x2="-16.80788" y2="60.14607"/><line class="uuid-8af4bb94-9440-448f-818f-6080430eb5c7" x1="19.54865" y1="87.6526" x2="-16.80788" y2="51.29607"/><line class="uuid-8af4bb94-9440-448f-818f-6080430eb5c7" x1="19.54865" y1="78.8026" x2="-16.80788" y2="42.44607"/><line class="uuid-8af4bb94-9440-448f-818f-6080430eb5c7" x1="19.54865" y1="69.9526" x2="-16.80788" y2="33.59607"/><line class="uuid-8af4bb94-9440-448f-818f-6080430eb5c7" x1="19.54865" y1="61.1026" x2="-16.80788" y2="24.74607"/><line class="uuid-8af4bb94-9440-448f-818f-6080430eb5c7" x1="19.54865" y1="52.2526" x2="-16.80788" y2="15.89607"/><line class="uuid-8af4bb94-9440-448f-818f-6080430eb5c7" x1="19.54865" y1="43.4026" x2="-16.80788" y2="7.04607"/><line class="uuid-8af4bb94-9440-448f-818f-6080430eb5c7" x1="19.54865" y1="34.5526" x2="-16.80788" y2="-1.80393"/><line class="uuid-8af4bb94-9440-448f-818f-6080430eb5c7" x1="19.54865" y1="25.7026" x2="-16.80788" y2="-10.65393"/><line class="uuid-8af4bb94-9440-448f-818f-6080430eb5c7" x1="19.54865" y1="16.8526" x2="-16.80788" y2="-19.50393"/><line class="uuid-8af4bb94-9440-448f-818f-6080430eb5c7" x1="19.54865" y1="8.0026" x2="-16.80788" y2="-28.35393"/></g><line class="uuid-de56cee4-f29e-460c-95df-c2353565315f" x1="18.79434" y1="179.78265" x2="18.79434" y2="18.49642"/><g class="uuid-6df567a5-4168-4e25-b969-7c751659f37e"><line class="uuid-8af4bb94-9440-448f-818f-6080430eb5c7" x1="634.82919" y1="13.86793" x2="671.18572" y2="50.22446"/><line class="uuid-8af4bb94-9440-448f-818f-6080430eb5c7" x1="634.82919" y1="22.71793" x2="671.18572" y2="59.07446"/><line class="uuid-8af4bb94-9440-448f-818f-6080430eb5c7" x1="634.82919" y1="31.56793" x2="671.18572" y2="67.92446"/><line class="uuid-8af4bb94-9440-448f-818f-6080430eb5c7" x1="634.82919" y1="40.41793" x2="671.18572" y2="76.77446"/><line class="uuid-8af4bb94-9440-448f-818f-6080430eb5c7" x1="634.82919" y1="49.26793" x2="671.18572" y2="85.62446"/><line class="uuid-8af4bb94-9440-448f-818f-6080430eb5c7" x1="634.82919" y1="58.11793" x2="671.18572" y2="94.47446"/><line class="uuid-8af4bb94-9440-448f-818f-6080430eb5c7" x1="634.82919" y1="66.96793" x2="671.18572" y2="103.32446"/><line class="uuid-8af4bb94-9440-448f-818f-6080430eb5c7" x1="634.82919" y1="75.81793" x2="671.18572" y2="112.17446"/><line class="uuid-8af4bb94-9440-448f-818f-6080430eb5c7" x1="634.82919" y1="84.66793" x2="671.18572" y2="121.02446"/><line class="uuid-8af4bb94-9440-448f-818f-6080430eb5c7" x1="634.82919" y1="93.51793" x2="671.18572" y2="129.87446"/><line class="uuid-8af4bb94-9440-448f-818f-6080430eb5c7" x1="634.82919" y1="102.36793" x2="671.18572" y2="138.72446"/><line class="uuid-8af4bb94-9440-448f-818f-6080430eb5c7" x1="634.82919" y1="111.21793" x2="671.18572" y2="147.57446"/><line class="uuid-8af4bb94-9440-448f-818f-6080430eb5c7" x1="634.82919" y1="120.06793" x2="671.18572" y2="156.42446"/><line class="uuid-8af4bb94-9440-448f-818f-6080430eb5c7" x1="634.82919" y1="128.91794" x2="671.18572" y2="165.27446"/><line class="uuid-8af4bb94-9440-448f-818f-6080430eb5c7" x1="634.82919" y1="137.76794" x2="671.18572" y2="174.12446"/><line class="uuid-8af4bb94-9440-448f-818f-6080430eb5c7" x1="634.82919" y1="146.61794" x2="671.18572" y2="182.97446"/><line class="uuid-8af4bb94-9440-448f-818f-6080430eb5c7" x1="634.82919" y1="155.46794" x2="671.18572" y2="191.82446"/><line class="uuid-8af4bb94-9440-448f-818f-6080430eb5c7" x1="634.82919" y1="164.31794" x2="671.18572" y2="200.67446"/><line class="uuid-8af4bb94-9440-448f-818f-6080430eb5c7" x1="634.82919" y1="173.16794" x2="671.18572" y2="209.52446"/><line class="uuid-8af4bb94-9440-448f-818f-6080430eb5c7" x1="634.82919" y1="182.01794" x2="671.18572" y2="218.37446"/><line class="uuid-8af4bb94-9440-448f-818f-6080430eb5c7" x1="634.82919" y1="190.86794" x2="671.18572" y2="227.22446"/><line class="uuid-8af4bb94-9440-448f-818f-6080430eb5c7" x1="634.82919" y1="199.71794" x2="671.18572" y2="236.07446"/><line class="uuid-8af4bb94-9440-448f-818f-6080430eb5c7" x1="634.82919" y1="208.56794" x2="671.18572" y2="244.92446"/><line class="uuid-8af4bb94-9440-448f-818f-6080430eb5c7" x1="634.82919" y1="217.41794" x2="671.18572" y2="253.77446"/><line class="uuid-8af4bb94-9440-448f-818f-6080430eb5c7" x1="634.82919" y1="226.26794" x2="671.18572" y2="262.62446"/></g><line class="uuid-de56cee4-f29e-460c-95df-c2353565315f" x1="635.5835" y1="72.18788" x2="635.5835" y2="233.47411"/><circle class="uuid-12d4de5e-9fb1-472f-9383-9f28f9e40537" cx="18.65465" cy="98.22629" r="3.21197"/><circle class="uuid-12d4de5e-9fb1-472f-9383-9f28f9e40537" cx="146.78433" cy="98.04893" r="3.21197"/><circle class="uuid-12d4de5e-9fb1-472f-9383-9f28f9e40537" cx="458.5748" cy="157.10822" r="3.21197"/><circle class="uuid-12d4de5e-9fb1-472f-9383-9f28f9e40537" cx="635.57531" cy="157.10822" r="3.21197"/><circle class="uuid-12d4de5e-9fb1-472f-9383-9f28f9e40537" cx="270.57827" cy="98.22629" r="3.21197"/><polyline class="uuid-2f907e0f-e2ea-4f6a-990d-6c89ade17954" points="19.90547 98.48914 48.85653 98.48914 54.90109 82.71241 60.87453 98.49702 66.99019 82.71241 73.03474 98.49702 79.15041 82.71241 85.19496 98.49702 91.23951 82.71241 97.28406 98.49702 103.32862 82.71241 109.37317 98.49702 143.00623 98.49702"/><path class="uuid-2f907e0f-e2ea-4f6a-990d-6c89ade17954" d="M270.16992,153.29979h-33.63306l-6.04455-15.78461-6.04455,15.78461-6.04455-15.78461-6.04455,15.78461-6.04455-15.78461-6.11566,15.78461-6.04455-15.78461-6.11566,15.78461-5.97344-15.78461-6.04455,15.77673h-29.00961c-.26209.26209,0-114.39412,0-114.39412h29.00961l6.04455-15.77673,5.97344,15.78461,6.11566-15.78461,6.04455,15.78461,6.11566-15.78461,6.04455,15.78461,6.04455-15.78461,6.04455,15.78461,6.04455-15.78461,6.04455,15.78461h33.63306s.22981,114.1643,0,114.39412Z"/><polyline class="uuid-2f907e0f-e2ea-4f6a-990d-6c89ade17954" points="147.01062 152.93991 147.01062 226.983 256.40865 226.983 262.45321 211.20626 268.42665 226.99088 274.54231 211.20626 280.58686 226.99088 286.70253 211.20626 292.74708 226.99088 298.79163 211.20626 304.83619 226.99088 310.88074 211.20626 317.08909 226.99088 323.13364 211.20626 329.17819 226.99088 335.22274 211.20626 341.26729 226.99088 459.12567 226.99088 459.12567 98.49702 390.61638 98.49702 384.57183 82.71241 378.52728 98.49702 372.48273 82.71241 366.43817 98.49702 360.39362 82.71241 354.27796 98.49702 348.23341 82.71241 342.11774 98.49702 336.1443 82.71241 330.09975 98.48914 272.90269 98.48914"/><polyline class="uuid-2f907e0f-e2ea-4f6a-990d-6c89ade17954" points="458.85964 157.01636 499.42009 157.01636 505.46464 141.23963 511.43808 157.02425 517.55374 141.23963 523.5983 157.02425 529.71396 141.23963 535.75851 157.02425 541.80307 141.23963 547.84762 157.02425 553.89217 141.23963 560.10052 157.02425 566.14507 141.23963 572.18962 157.02425 578.23417 141.23963 584.27873 157.02425 633.90924 157.02425"/><text class="uuid-6461d282-acc0-49f2-b93d-66df436b1cc6" transform="translate(204.62808 13.56831)"><tspan class="uuid-0e014fc9-db1f-4821-b0d1-b76a0c9c253e" x="0" y="0">k</tspan><tspan class="uuid-9a98c1eb-417e-482c-ad49-d6c5ecf0fcad" x="7.10156" y="3.2002">2</tspan></text><text class="uuid-6461d282-acc0-49f2-b93d-66df436b1cc6" transform="translate(203.54311 126.60493)"><tspan class="uuid-0e014fc9-db1f-4821-b0d1-b76a0c9c253e" x="0" y="0">k</tspan><tspan class="uuid-9a98c1eb-417e-482c-ad49-d6c5ecf0fcad" x="7.10156" y="3.2002">3</tspan></text><text class="uuid-6461d282-acc0-49f2-b93d-66df436b1cc6" transform="translate(353.2897 74.41255)"><tspan class="uuid-0e014fc9-db1f-4821-b0d1-b76a0c9c253e" x="0" y="0">k</tspan><tspan class="uuid-9a98c1eb-417e-482c-ad49-d6c5ecf0fcad" x="7.10156" y="3.2002">5</tspan></text><text class="uuid-6461d282-acc0-49f2-b93d-66df436b1cc6" transform="translate(295.82632 201.31001)"><tspan class="uuid-0e014fc9-db1f-4821-b0d1-b76a0c9c253e" x="0" y="0">k</tspan><tspan class="uuid-9a98c1eb-417e-482c-ad49-d6c5ecf0fcad" x="7.10156" y="3.2002">4</tspan></text><text class="uuid-6461d282-acc0-49f2-b93d-66df436b1cc6" transform="translate(537.04458 130.44234)"><tspan class="uuid-0e014fc9-db1f-4821-b0d1-b76a0c9c253e" x="0" y="0">k</tspan><tspan class="uuid-9a98c1eb-417e-482c-ad49-d6c5ecf0fcad" x="7.10156" y="3.2002">6</tspan></text><text class="uuid-c89a7c15-e1a0-49c0-a244-6391f4b1aac7" transform="translate(377.7228 159.73726)"><tspan class="uuid-ace58e54-460c-423f-b0b8-8f1b856750d0" x="0" y="0">F</tspan><tspan class="uuid-490c9a51-c083-425c-aa6a-9f20abaf1426" x="9.77393" y="3.2002">4</tspan></text><text class="uuid-c89a7c15-e1a0-49c0-a244-6391f4b1aac7" transform="translate(209.05825 102.27437)"><tspan class="uuid-ace58e54-460c-423f-b0b8-8f1b856750d0" x="0" y="0">F</tspan><tspan class="uuid-490c9a51-c083-425c-aa6a-9f20abaf1426" x="9.77344" y="3.2002">2</tspan></text><circle class="uuid-acd060da-6e88-478f-bb56-c13a51a0c41d" cx="35.67081" cy="116.24328" r="10.18476"/><text class="uuid-4149b18d-1351-4778-b82e-d80826f3b0a5" transform="translate(31.80825 121.34126)"><tspan x="0" y="0">1</tspan></text><circle class="uuid-acd060da-6e88-478f-bb56-c13a51a0c41d" cx="127.23217" cy="116.24328" r="10.18476"/><text class="uuid-4149b18d-1351-4778-b82e-d80826f3b0a5" transform="translate(123.36929 121.16402)"><tspan x="0" y="0">2</tspan></text><circle class="uuid-acd060da-6e88-478f-bb56-c13a51a0c41d" cx="287.98363" cy="80.76431" r="10.18476"/><text class="uuid-4149b18d-1351-4778-b82e-d80826f3b0a5" transform="translate(284.47573 85.86226)"><tspan x="0" y="0">3</tspan></text><circle class="uuid-acd060da-6e88-478f-bb56-c13a51a0c41d" cx="475.89718" cy="173.28858" r="10.18476"/><text class="uuid-4149b18d-1351-4778-b82e-d80826f3b0a5" transform="translate(471.14712 178.03169)"><tspan x="0" y="0">4</tspan></text><circle class="uuid-acd060da-6e88-478f-bb56-c13a51a0c41d" cx="619.97634" cy="173.28858" r="10.18476"/><text class="uuid-4149b18d-1351-4778-b82e-d80826f3b0a5" transform="translate(616.29165 178.56392)"><tspan x="0" y="0">5</tspan></text><text class="uuid-faec83bb-6cbd-45bf-b438-31b0254f8e5a" transform="translate(717.76626 159.24116)"><tspan x="0" y="0">x</tspan></text><line class="uuid-4e50fffa-593f-482c-a5cf-ba41d8739e01" x1="678.7405" y1="154.98466" x2="710.83486" y2="154.98466"/><polygon class="uuid-3e66e308-e6ad-44c0-a04e-0eb3ed5c1ae7" points="715.63826 154.98466 708.86965 157.75044 710.47573 154.98466 708.86965 152.21955 715.63826 154.98466"/></svg>