<?xml version="1.0" encoding="UTF-8"?><svg id="uuid-eb3830cb-946f-4854-9567-c4b069339d1b" xmlns="http://www.w3.org/2000/svg" width="570" height="202" xmlns:xlink="http://www.w3.org/1999/xlink" viewBox="0 0 570 202"><defs><style>.uuid-668c4db1-5976-4311-8e2b-2a85397ee9a9{stroke-linecap:round;stroke-linejoin:round;stroke-width:1.36063px;}.uuid-668c4db1-5976-4311-8e2b-2a85397ee9a9,.uuid-f7497bf2-bafe-4248-972a-ffe6cd7e16d1,.uuid-34ace25c-4ba8-4999-a4e2-ddfc210d98fd,.uuid-5afff76e-5a87-4d40-b238-0a2e7f8e720c{fill:none;}.uuid-668c4db1-5976-4311-8e2b-2a85397ee9a9,.uuid-fe0701ab-b94a-41d3-8b51-c097da269bf1,.uuid-6c643249-e8e6-4ff9-b45f-5a3eb634c938,.uuid-5afff76e-5a87-4d40-b238-0a2e7f8e720c{stroke:#1f1e21;}.uuid-5feb1c4e-e842-45c6-9d8b-20e243eb251c{clip-path:url(#uuid-a4798599-bf60-4323-b43f-5db2dc54134f);}.uuid-39d74f71-e547-4a39-998d-b40c12c1e940,.uuid-78b42fcf-ae53-465d-a49a-f5d700956a6a,.uuid-728b1c6c-9b22-4551-b85f-1a0456cdb227{font-size:16px;}.uuid-0e94cf9f-70f5-4dba-a0ad-af83ca8484cd{clip-path:url(#uuid-b32c7f63-76ad-493a-b6e4-e8aea6efc9c4);}.uuid-7a65bac7-db3f-4928-8845-3aeff66bc3bd,.uuid-78b42fcf-ae53-465d-a49a-f5d700956a6a{font-family:TimesNewRomanPSMT, 'Times New Roman';}.uuid-7a65bac7-db3f-4928-8845-3aeff66bc3bd,.uuid-bcdfa85f-c2fd-4e5d-aa43-7ad3ddb1dad3{font-size:9.6px;}.uuid-f7497bf2-bafe-4248-972a-ffe6cd7e16d1,.uuid-40d1d078-301a-497c-ab05-cc6ead8ce8bc,.uuid-2d755eda-f53c-45b8-8080-c8792a695fa6{stroke-width:0px;}.uuid-4ea16b6b-a54d-479d-94a5-af4c9376ddd4{font-family:TimesNewRomanPS-BoldMT, 'Times New Roman';font-weight:700;}.uuid-4ea16b6b-a54d-479d-94a5-af4c9376ddd4,.uuid-78b42fcf-ae53-465d-a49a-f5d700956a6a,.uuid-fba479bc-aaaf-44c1-8d58-d0e276d6a194{fill:#1f1e21;}.uuid-728b1c6c-9b22-4551-b85f-1a0456cdb227{font-family:TimesNewRomanPS-ItalicMT, 'Times New Roman';font-style:italic;}.uuid-fe0701ab-b94a-41d3-8b51-c097da269bf1{fill:#fff;stroke-width:.68032px;}.uuid-40d1d078-301a-497c-ab05-cc6ead8ce8bc,.uuid-6c643249-e8e6-4ff9-b45f-5a3eb634c938{fill:#d8d9da;}.uuid-6c643249-e8e6-4ff9-b45f-5a3eb634c938{stroke-width:.90709px;}.uuid-34ace25c-4ba8-4999-a4e2-ddfc210d98fd{stroke:#0089c6;stroke-width:1.81417px;}.uuid-5afff76e-5a87-4d40-b238-0a2e7f8e720c{stroke-width:.45354px;}.uuid-2d755eda-f53c-45b8-8080-c8792a695fa6{fill:#0089c6;}</style><clipPath id="uuid-a4798599-bf60-4323-b43f-5db2dc54134f"><rect class="uuid-f7497bf2-bafe-4248-972a-ffe6cd7e16d1" x="-82.35963" y="83.81593" width="200.16579" height="34.58427" transform="translate(118.83133 83.38481) rotate(90)"/></clipPath><clipPath id="uuid-b32c7f63-76ad-493a-b6e4-e8aea6efc9c4"><rect class="uuid-f7497bf2-bafe-4248-972a-ffe6cd7e16d1" x="452.23334" y="83.81593" width="200.16579" height="34.58427" transform="translate(653.4243 -451.20816) rotate(90)"/></clipPath></defs><polyline class="uuid-668c4db1-5976-4311-8e2b-2a85397ee9a9" points="534.89108 93.74157 495.28873 93.74157 491.91345 80.77247 491.84256 100.39239 486.93015 80.77247 486.99572 100.39239 481.94685 80.77247 482.14887 100.39239 476.96355 80.77247 477.30203 100.39239 471.98025 80.77247 472.45518 100.39239 466.99695 80.77247 466.99695 93.74157 413.84614 93.74157"/><polyline class="uuid-668c4db1-5976-4311-8e2b-2a85397ee9a9" points="245.04831 152.7192 165.45335 152.7192 158.98669 139.16272 158.85368 158.78264 149.63564 139.16272 149.75868 158.78264 140.28458 139.16272 140.66368 158.78264 130.93353 139.16272 131.56868 158.78264 121.58248 139.16272 122.47369 158.78264 112.23142 139.16272 112.36444 152.7192 32.75411 152.7192"/><polyline class="uuid-668c4db1-5976-4311-8e2b-2a85397ee9a9" points="378.86282 52.02577 300.73104 52.02577 294.3974 38.33628 294.26439 57.9562 285.04635 38.33628 285.16939 57.9562 275.69529 38.33628 276.07439 57.9562 266.34424 38.33628 266.97939 57.9562 256.99319 38.33628 257.8844 57.9562 247.64213 38.33628 247.64213 52.02577 167.63276 52.02577"/><polyline class="uuid-668c4db1-5976-4311-8e2b-2a85397ee9a9" points="244.78228 102.11769 220.28441 102.11769 217.10163 89.14859 217.03479 108.76851 212.40255 89.14859 212.46438 108.76851 207.70347 89.14859 207.89397 108.76851 203.00439 89.14859 203.32357 108.76851 198.30531 89.14859 198.75316 108.76851 193.60623 89.14859 193.60623 102.11769 167.76578 102.11769"/><polyline class="uuid-668c4db1-5976-4311-8e2b-2a85397ee9a9" points="378.72981 134.44064 345.39991 134.44064 342.21714 121.47154 342.15029 141.09146 337.51806 121.47154 337.57989 141.09146 332.81898 121.47154 333.00948 141.09146 328.11989 121.47154 328.43907 141.09146 323.42081 121.47154 323.86866 141.09146 318.72173 121.47154 318.72173 134.44064 279.7656 134.44064"/><polyline class="uuid-668c4db1-5976-4311-8e2b-2a85397ee9a9" points="132.25039 59.41942 94.14958 59.41942 90.96681 46.45032 90.89996 66.07024 86.26772 46.45032 86.32955 66.07024 81.56864 46.45032 81.75915 66.07024 76.86956 46.45032 77.18874 66.07024 72.17048 46.45032 72.61833 66.07024 67.4714 46.45032 67.4714 59.41942 33.54825 59.41942"/><rect class="uuid-40d1d078-301a-497c-ab05-cc6ead8ce8bc" x="534.98461" y=".82565" width="34.62376" height="200.3487"/><rect class="uuid-6c643249-e8e6-4ff9-b45f-5a3eb634c938" x="379.17241" y=".82565" width="34.62376" height="200.3487"/><rect class="uuid-6c643249-e8e6-4ff9-b45f-5a3eb634c938" x="245.09186" y="77.34542" width="34.62376" height="123.82893"/><rect class="uuid-6c643249-e8e6-4ff9-b45f-5a3eb634c938" x="132.8383" y=".82565" width="34.62376" height="119.87065"/><rect class="uuid-40d1d078-301a-497c-ab05-cc6ead8ce8bc" x=".39164" y=".82565" width="34.62376" height="200.3487"/><g class="uuid-5feb1c4e-e842-45c6-9d8b-20e243eb251c"><line class="uuid-5afff76e-5a87-4d40-b238-0a2e7f8e720c" x1="-.15825" y1="-31.90781" x2="36.19827" y2="4.44871"/><line class="uuid-5afff76e-5a87-4d40-b238-0a2e7f8e720c" x1="-.15825" y1="-22.34981" x2="36.19827" y2="14.00671"/><line class="uuid-5afff76e-5a87-4d40-b238-0a2e7f8e720c" x1="-.15825" y1="-12.79181" x2="36.19827" y2="23.56471"/><line class="uuid-5afff76e-5a87-4d40-b238-0a2e7f8e720c" x1="-.15825" y1="-3.23381" x2="36.19827" y2="33.12271"/><line class="uuid-5afff76e-5a87-4d40-b238-0a2e7f8e720c" x1="-.15825" y1="6.32419" x2="36.19827" y2="42.68071"/><line class="uuid-5afff76e-5a87-4d40-b238-0a2e7f8e720c" x1="-.15825" y1="15.88219" x2="36.19827" y2="52.23871"/><line class="uuid-5afff76e-5a87-4d40-b238-0a2e7f8e720c" x1="-.15825" y1="25.44019" x2="36.19827" y2="61.79671"/><line class="uuid-5afff76e-5a87-4d40-b238-0a2e7f8e720c" x1="-.15825" y1="34.99819" x2="36.19827" y2="71.35471"/><line class="uuid-5afff76e-5a87-4d40-b238-0a2e7f8e720c" x1="-.15825" y1="44.55619" x2="36.19827" y2="80.91271"/><line class="uuid-5afff76e-5a87-4d40-b238-0a2e7f8e720c" x1="-.15825" y1="54.11419" x2="36.19827" y2="90.47071"/><line class="uuid-5afff76e-5a87-4d40-b238-0a2e7f8e720c" x1="-.15825" y1="63.67219" x2="36.19827" y2="100.02871"/><line class="uuid-5afff76e-5a87-4d40-b238-0a2e7f8e720c" x1="-.15825" y1="73.23019" x2="36.19827" y2="109.58672"/><line class="uuid-5afff76e-5a87-4d40-b238-0a2e7f8e720c" x1="-.15825" y1="82.78819" x2="36.19827" y2="119.14472"/><line class="uuid-5afff76e-5a87-4d40-b238-0a2e7f8e720c" x1="-.15825" y1="92.34619" x2="36.19827" y2="128.70272"/><line class="uuid-5afff76e-5a87-4d40-b238-0a2e7f8e720c" x1="-.15825" y1="101.90419" x2="36.19827" y2="138.26072"/><line class="uuid-5afff76e-5a87-4d40-b238-0a2e7f8e720c" x1="-.15825" y1="111.46219" x2="36.19827" y2="147.81872"/><line class="uuid-5afff76e-5a87-4d40-b238-0a2e7f8e720c" x1="-.15825" y1="121.02019" x2="36.19827" y2="157.37672"/><line class="uuid-5afff76e-5a87-4d40-b238-0a2e7f8e720c" x1="-.15825" y1="130.57819" x2="36.19827" y2="166.93472"/><line class="uuid-5afff76e-5a87-4d40-b238-0a2e7f8e720c" x1="-.15825" y1="140.13619" x2="36.19827" y2="176.49272"/><line class="uuid-5afff76e-5a87-4d40-b238-0a2e7f8e720c" x1="-.15825" y1="149.69419" x2="36.19827" y2="186.05072"/><line class="uuid-5afff76e-5a87-4d40-b238-0a2e7f8e720c" x1="-.15825" y1="159.25219" x2="36.19827" y2="195.60872"/><line class="uuid-5afff76e-5a87-4d40-b238-0a2e7f8e720c" x1="-.15825" y1="168.81019" x2="36.19827" y2="205.16672"/><line class="uuid-5afff76e-5a87-4d40-b238-0a2e7f8e720c" x1="-.15825" y1="178.36819" x2="36.19827" y2="214.72472"/><line class="uuid-5afff76e-5a87-4d40-b238-0a2e7f8e720c" x1="-.15825" y1="187.92619" x2="36.19827" y2="224.28272"/><line class="uuid-5afff76e-5a87-4d40-b238-0a2e7f8e720c" x1="-.15825" y1="197.48419" x2="36.19827" y2="233.84072"/></g><g class="uuid-0e94cf9f-70f5-4dba-a0ad-af83ca8484cd"><line class="uuid-5afff76e-5a87-4d40-b238-0a2e7f8e720c" x1="534.43471" y1="-31.90781" x2="570.79124" y2="4.44871"/><line class="uuid-5afff76e-5a87-4d40-b238-0a2e7f8e720c" x1="534.43471" y1="-22.34981" x2="570.79124" y2="14.00671"/><line class="uuid-5afff76e-5a87-4d40-b238-0a2e7f8e720c" x1="534.43471" y1="-12.79181" x2="570.79124" y2="23.56471"/><line class="uuid-5afff76e-5a87-4d40-b238-0a2e7f8e720c" x1="534.43471" y1="-3.23381" x2="570.79124" y2="33.12271"/><line class="uuid-5afff76e-5a87-4d40-b238-0a2e7f8e720c" x1="534.43471" y1="6.32419" x2="570.79124" y2="42.68071"/><line class="uuid-5afff76e-5a87-4d40-b238-0a2e7f8e720c" x1="534.43471" y1="15.88219" x2="570.79124" y2="52.23871"/><line class="uuid-5afff76e-5a87-4d40-b238-0a2e7f8e720c" x1="534.43471" y1="25.44019" x2="570.79124" y2="61.79671"/><line class="uuid-5afff76e-5a87-4d40-b238-0a2e7f8e720c" x1="534.43471" y1="34.99819" x2="570.79124" y2="71.35471"/><line class="uuid-5afff76e-5a87-4d40-b238-0a2e7f8e720c" x1="534.43471" y1="44.55619" x2="570.79124" y2="80.91271"/><line class="uuid-5afff76e-5a87-4d40-b238-0a2e7f8e720c" x1="534.43471" y1="54.11419" x2="570.79124" y2="90.47071"/><line class="uuid-5afff76e-5a87-4d40-b238-0a2e7f8e720c" x1="534.43471" y1="63.67219" x2="570.79124" y2="100.02871"/><line class="uuid-5afff76e-5a87-4d40-b238-0a2e7f8e720c" x1="534.43471" y1="73.23019" x2="570.79124" y2="109.58672"/><line class="uuid-5afff76e-5a87-4d40-b238-0a2e7f8e720c" x1="534.43471" y1="82.78819" x2="570.79124" y2="119.14472"/><line class="uuid-5afff76e-5a87-4d40-b238-0a2e7f8e720c" x1="534.43471" y1="92.34619" x2="570.79124" y2="128.70272"/><line class="uuid-5afff76e-5a87-4d40-b238-0a2e7f8e720c" x1="534.43471" y1="101.90419" x2="570.79124" y2="138.26072"/><line class="uuid-5afff76e-5a87-4d40-b238-0a2e7f8e720c" x1="534.43471" y1="111.46219" x2="570.79124" y2="147.81872"/><line class="uuid-5afff76e-5a87-4d40-b238-0a2e7f8e720c" x1="534.43471" y1="121.02019" x2="570.79124" y2="157.37672"/><line class="uuid-5afff76e-5a87-4d40-b238-0a2e7f8e720c" x1="534.43471" y1="130.57819" x2="570.79124" y2="166.93472"/><line class="uuid-5afff76e-5a87-4d40-b238-0a2e7f8e720c" x1="534.43471" y1="140.13619" x2="570.79124" y2="176.49272"/><line class="uuid-5afff76e-5a87-4d40-b238-0a2e7f8e720c" x1="534.43471" y1="149.69419" x2="570.79124" y2="186.05072"/><line class="uuid-5afff76e-5a87-4d40-b238-0a2e7f8e720c" x1="534.43471" y1="159.25219" x2="570.79124" y2="195.60872"/><line class="uuid-5afff76e-5a87-4d40-b238-0a2e7f8e720c" x1="534.43471" y1="168.81019" x2="570.79124" y2="205.16672"/><line class="uuid-5afff76e-5a87-4d40-b238-0a2e7f8e720c" x1="534.43471" y1="178.36819" x2="570.79124" y2="214.72472"/><line class="uuid-5afff76e-5a87-4d40-b238-0a2e7f8e720c" x1="534.43471" y1="187.92619" x2="570.79124" y2="224.28272"/><line class="uuid-5afff76e-5a87-4d40-b238-0a2e7f8e720c" x1="534.43471" y1="197.48419" x2="570.79124" y2="233.84072"/></g><line class="uuid-34ace25c-4ba8-4999-a4e2-ddfc210d98fd" x1="329.29205" y1="178.95679" x2="289.23937" y2="178.95679"/><polygon class="uuid-2d755eda-f53c-45b8-8080-c8792a695fa6" points="279.63258 178.95679 293.16979 173.42527 289.95756 178.95679 293.16979 184.487 279.63258 178.95679"/><text class="uuid-fba479bc-aaaf-44c1-8d58-d0e276d6a194" transform="translate(76.90678 36.4684)"><tspan class="uuid-728b1c6c-9b22-4551-b85f-1a0456cdb227" x="0" y="0">k</tspan><tspan class="uuid-7a65bac7-db3f-4928-8845-3aeff66bc3bd" x="7.10156" y="3.2002">1</tspan></text><text class="uuid-fba479bc-aaaf-44c1-8d58-d0e276d6a194" transform="translate(266.95463 29.72915)"><tspan class="uuid-728b1c6c-9b22-4551-b85f-1a0456cdb227" x="0" y="0">k</tspan><tspan class="uuid-7a65bac7-db3f-4928-8845-3aeff66bc3bd" x="7.10156" y="3.2002">2</tspan></text><text class="uuid-fba479bc-aaaf-44c1-8d58-d0e276d6a194" transform="translate(200.60258 79.62758)"><tspan class="uuid-728b1c6c-9b22-4551-b85f-1a0456cdb227" x="0" y="0">k</tspan><tspan class="uuid-7a65bac7-db3f-4928-8845-3aeff66bc3bd" x="7.10156" y="3.2002">3</tspan></text><text class="uuid-fba479bc-aaaf-44c1-8d58-d0e276d6a194" transform="translate(132.81059 178.28969)"><tspan class="uuid-728b1c6c-9b22-4551-b85f-1a0456cdb227" x="0" y="0">k</tspan><tspan class="uuid-7a65bac7-db3f-4928-8845-3aeff66bc3bd" x="7.10156" y="3.2002">4</tspan></text><text class="uuid-fba479bc-aaaf-44c1-8d58-d0e276d6a194" transform="translate(324.1895 112.65395)"><tspan class="uuid-728b1c6c-9b22-4551-b85f-1a0456cdb227" x="0" y="0">k</tspan><tspan class="uuid-7a65bac7-db3f-4928-8845-3aeff66bc3bd" x="7.10156" y="3.2002">5</tspan></text><text class="uuid-fba479bc-aaaf-44c1-8d58-d0e276d6a194" transform="translate(474.86772 69.98549)"><tspan class="uuid-728b1c6c-9b22-4551-b85f-1a0456cdb227" x="0" y="0">k</tspan><tspan class="uuid-7a65bac7-db3f-4928-8845-3aeff66bc3bd" x="7.10156" y="3.2002">6</tspan></text><text class="uuid-4ea16b6b-a54d-479d-94a5-af4c9376ddd4" transform="translate(332.9268 182.99233)"><tspan class="uuid-39d74f71-e547-4a39-998d-b40c12c1e940" x="0" y="0">F</tspan><tspan class="uuid-bcdfa85f-c2fd-4e5d-aa43-7ad3ddb1dad3" x="9.77344" y="3.2002">3</tspan></text><circle class="uuid-fe0701ab-b94a-41d3-8b51-c097da269bf1" cx="17.29655" cy="93.32291" r="10.18476"/><text class="uuid-78b42fcf-ae53-465d-a49a-f5d700956a6a" transform="translate(13.43364 98.42104)"><tspan x="0" y="0">1</tspan></text><circle class="uuid-fe0701ab-b94a-41d3-8b51-c097da269bf1" cx="148.94812" cy="54.18652" r="10.18476"/><text class="uuid-78b42fcf-ae53-465d-a49a-f5d700956a6a" transform="translate(145.08549 59.10708)"><tspan x="0" y="0">2</tspan></text><circle class="uuid-fe0701ab-b94a-41d3-8b51-c097da269bf1" cx="262.16046" cy="136.83406" r="10.18476"/><text class="uuid-78b42fcf-ae53-465d-a49a-f5d700956a6a" transform="translate(258.65239 141.93227)"><tspan x="0" y="0">3</tspan></text><circle class="uuid-fe0701ab-b94a-41d3-8b51-c097da269bf1" cx="395.98463" cy="93.32291" r="10.18476"/><text class="uuid-78b42fcf-ae53-465d-a49a-f5d700956a6a" transform="translate(391.23588 98.06606)"><tspan x="0" y="0">4</tspan></text><circle class="uuid-fe0701ab-b94a-41d3-8b51-c097da269bf1" cx="551.76924" cy="93.32291" r="10.18476"/><text class="uuid-78b42fcf-ae53-465d-a49a-f5d700956a6a" transform="translate(548.08354 98.59829)"><tspan x="0" y="0">5</tspan></text></svg>